<svg
    width="10"
    height="10"
    viewBox="0 0 10 10"
    fill="none"
    xmlns="http://www.w3.org/2000/svg"
    >
    <path
        d="M9.44182 7.64838C9.79604 7.9765 9.79387 8.55071 9.43716 8.87884C9.27248 9.0429 9.05342 9.12493 8.83467 9.12493C8.58857 9.12493 8.37013 9.0429 8.20669 8.87884L5.34646 6.00776L2.43716 8.87884C2.27248 9.0429 2.05342 9.12493 1.83467 9.12493C1.58857 9.12493 1.37013 9.0429 1.20669 8.87884C0.852465 8.55071 0.854638 7.9765 1.21135 7.64838L4.09341 4.74996L1.23318 1.87889C0.878957 1.55076 0.88113 0.976549 1.23784 0.648426C1.56731 0.29296 2.14153 0.29296 2.46831 0.648426L5.35588 3.5195L8.23784 0.648426C8.56731 0.29296 9.14153 0.29296 9.46831 0.648426C9.82254 0.976549 9.82036 1.55076 9.46365 1.87889L6.58159 4.7773L9.44182 7.64838Z"
        fill="white"
    />
</svg>